<svg width="16" height="16" viewBox="0 0 16 16" fill="none" xmlns="http://www.w3.org/2000/svg">
<path fill-rule="evenodd" clip-rule="evenodd" d="M16 8C16 8.55228 15.5523 9 15 9L1 9C0.447715 9 2.86701e-07 8.55229 2.38419e-07 8C1.90136e-07 7.44772 0.447715 7 1 7L15 7C15.5523 7 16 7.44771 16 8Z" fill="black"/>
<path fill-rule="evenodd" clip-rule="evenodd" d="M8.70711 15.7071C8.31658 16.0976 7.68342 16.0976 7.29289 15.7071L0.292894 8.70711C-0.0976312 8.31658 -0.0976312 7.68342 0.292894 7.29289L7.29289 0.292894C7.68342 -0.0976312 8.31658 -0.0976312 8.70711 0.292894C9.09763 0.683417 9.09763 1.31658 8.70711 1.70711L2.41421 8L8.70711 14.2929C9.09763 14.6834 9.09763 15.3166 8.70711 15.7071Z" fill="black"/>
</svg>
