<svg width="68" height="62" viewBox="0 0 68 62" fill="none" xmlns="http://www.w3.org/2000/svg">
<path d="M58.4528 25.4843C57.9825 25.215 57.3829 25.378 57.1135 25.8483C56.8441 26.3191 57.0077 26.9182 57.478 27.1876C62.9133 30.2985 65.9062 34.3102 65.9062 38.4829C65.9062 46.5931 54.4749 53.6723 39.3156 54.9497C38.7758 54.9952 38.375 55.4701 38.42 56.0099C38.4635 56.5221 38.8923 56.909 39.3969 56.909C39.4245 56.909 39.4526 56.908 39.4807 56.9055C47.2173 56.2537 54.3282 54.1037 59.5043 50.8522C64.8981 47.4636 67.869 43.0712 67.869 38.4829C67.869 33.5762 64.525 28.9598 58.4528 25.4843Z" fill="white"/>
<path d="M35.1896 56.6749C35.1953 56.6663 35.2004 56.6576 35.2055 56.6489C35.2188 56.6274 35.231 56.6054 35.2428 56.5829C35.2479 56.5732 35.252 56.5635 35.2566 56.5538C35.2673 56.5313 35.277 56.5083 35.2857 56.4853C35.2898 56.4751 35.2934 56.4654 35.297 56.4551C35.3052 56.4311 35.3123 56.4071 35.3184 56.382C35.321 56.3723 35.3241 56.3621 35.3266 56.3519C35.3322 56.3258 35.3363 56.2997 35.3399 56.2732C35.3415 56.264 35.3435 56.2548 35.3445 56.2456C35.3481 56.2103 35.3507 56.174 35.3507 56.1377C35.3507 56.1009 35.3481 56.0651 35.3445 56.0293C35.3435 56.0201 35.3415 56.0114 35.3399 56.0022C35.3363 55.9752 35.3322 55.9491 35.3266 55.923C35.3241 55.9128 35.321 55.9031 35.3184 55.8929C35.3123 55.8683 35.3052 55.8438 35.297 55.8198C35.2934 55.8095 35.2898 55.7998 35.2857 55.7896C35.277 55.7661 35.2673 55.7436 35.2566 55.7211C35.252 55.7114 35.2474 55.7017 35.2428 55.692C35.231 55.669 35.2188 55.6475 35.2055 55.6255C35.2004 55.6173 35.1953 55.6086 35.1896 55.5999C35.1733 55.5744 35.1549 55.5499 35.136 55.5258C35.1334 55.5223 35.1308 55.5187 35.1278 55.5151C35.1058 55.488 35.0823 55.4624 35.0572 55.4384C35.0501 55.4313 35.0424 55.4251 35.0353 55.418C35.0163 55.4006 34.9974 55.3842 34.9775 55.3684C34.9739 55.3653 34.9709 55.3617 34.9673 55.3592L29.8121 51.3986C29.3827 51.0684 28.7663 51.1497 28.4361 51.5791C28.1058 52.009 28.1866 52.6249 28.6165 52.9552L31.3835 55.0811C23.9889 54.7126 17.1377 52.9787 11.8435 50.1044C6.03196 46.9494 2.83204 42.8222 2.83204 38.4829C2.83204 34.3102 5.82494 30.2985 11.2602 27.1876C11.7305 26.9182 11.8936 26.3191 11.6247 25.8483C11.3553 25.378 10.7557 25.215 10.2854 25.4843C4.21322 28.9598 0.869141 33.5762 0.869141 38.4829C0.869141 43.5752 4.43404 48.3153 10.907 51.829C16.5217 54.8772 23.7732 56.7005 31.5654 57.0542L28.6165 59.3197C28.1866 59.65 28.1058 60.2659 28.4361 60.6958C28.6293 60.9473 28.9206 61.0792 29.2151 61.0792C29.4236 61.0792 29.6342 61.0132 29.8121 60.8763L34.9673 56.9157C34.9709 56.9126 34.9739 56.9096 34.9775 56.9065C34.9974 56.8907 35.0163 56.8743 35.0353 56.8569C35.0424 56.8503 35.0501 56.8436 35.0572 56.837C35.0823 56.8124 35.1058 56.7869 35.1278 56.7598C35.1308 56.7562 35.1334 56.7526 35.136 56.7491C35.1549 56.725 35.1728 56.7005 35.1896 56.6749Z" fill="white"/>
<path d="M14.6309 33.9873L33.924 43.8161C33.9342 43.8217 33.945 43.8253 33.9552 43.8299C33.9705 43.837 33.9859 43.8437 34.0012 43.8503C34.0257 43.86 34.0508 43.8687 34.0758 43.8769C34.0912 43.8815 34.106 43.8866 34.1213 43.8902C34.1489 43.8973 34.1771 43.903 34.2052 43.9076C34.2185 43.9101 34.2312 43.9132 34.2445 43.9147C34.2859 43.9198 34.3273 43.9234 34.3693 43.9234C34.4107 43.9234 34.4521 43.9198 34.494 43.9147C34.5068 43.9132 34.5201 43.9101 34.5333 43.9076C34.5615 43.903 34.5891 43.8978 34.6172 43.8902C34.6325 43.8866 34.6473 43.8815 34.6627 43.8769C34.6877 43.8687 34.7128 43.86 34.7373 43.8503C34.7526 43.8437 34.768 43.837 34.7833 43.8299C34.794 43.8253 34.8043 43.8217 34.815 43.8161L54.1076 33.9873C54.4363 33.8196 54.6433 33.4817 54.6433 33.1127V29.17C54.6433 28.6282 54.2042 28.1886 53.6618 28.1886C53.12 28.1886 52.6804 28.6282 52.6804 29.17V32.5115L35.3507 41.3405V21.3813L52.6804 12.5524V25.2447C52.6804 25.7866 53.12 26.2262 53.6618 26.2262C54.2042 26.2262 54.6433 25.7866 54.6433 25.2447V10.9509C54.6433 10.9064 54.6402 10.8624 54.6341 10.819C54.6321 10.8042 54.6285 10.7904 54.6259 10.7755C54.6208 10.7474 54.6157 10.7193 54.608 10.6917C54.6034 10.6748 54.5968 10.6585 54.5912 10.6421C54.5835 10.6176 54.5753 10.593 54.5651 10.5695C54.5579 10.5527 54.5498 10.5363 54.5416 10.5199C54.5308 10.4975 54.5196 10.4755 54.5073 10.4545C54.4976 10.4382 54.4869 10.4228 54.4767 10.407C54.4634 10.387 54.4496 10.3671 54.4347 10.3482C54.423 10.3329 54.4102 10.3185 54.3979 10.3042C54.3821 10.2858 54.3657 10.2685 54.3489 10.2516C54.3345 10.2378 54.3202 10.225 54.3054 10.2122C54.2875 10.1964 54.2686 10.1816 54.2497 10.1672C54.2338 10.155 54.2175 10.1437 54.2006 10.1325C54.1919 10.1263 54.1838 10.1197 54.1746 10.1141C54.1628 10.1069 54.15 10.1013 54.1377 10.0947C54.1275 10.089 54.1183 10.0819 54.1076 10.0763L34.8145 0.247465C34.5349 0.104849 34.2036 0.104849 33.9235 0.247465L31.1484 1.66136C30.6653 1.90775 30.4731 2.49866 30.719 2.9812C30.9654 3.46426 31.5558 3.65646 32.0388 3.41059L34.3693 2.22314L51.5001 10.9509L34.3693 19.6786L17.2384 10.9509L28.5296 5.19815C29.0127 4.95228 29.2049 4.36136 28.959 3.87831C28.7126 3.39525 28.1217 3.20305 27.6392 3.44944L14.6309 10.0763C14.6207 10.0819 14.611 10.089 14.6008 10.0947C14.5885 10.1013 14.5757 10.1069 14.564 10.1141C14.5548 10.1197 14.5471 10.1263 14.5379 10.1325C14.521 10.1432 14.5052 10.155 14.4888 10.1672C14.4699 10.1816 14.451 10.1964 14.4331 10.2122C14.4183 10.225 14.404 10.2378 14.3902 10.2516C14.3728 10.2685 14.3569 10.2858 14.3411 10.3042C14.3283 10.3185 14.3155 10.3329 14.3038 10.3482C14.2889 10.3671 14.2751 10.387 14.2619 10.407C14.2516 10.4228 14.2409 10.4382 14.2312 10.4545C14.2189 10.4755 14.2082 10.498 14.1969 10.5199C14.1888 10.5363 14.1806 10.5527 14.1734 10.569C14.1632 10.593 14.1555 10.6176 14.1474 10.6421C14.1417 10.6585 14.1356 10.6743 14.131 10.6912C14.1233 10.7193 14.1182 10.7474 14.1131 10.776C14.1106 10.7904 14.1065 10.8042 14.1044 10.819C14.0988 10.8624 14.0952 10.9064 14.0952 10.9509V18.4462C14.0952 18.9885 14.5348 19.4276 15.0767 19.4276C15.6185 19.4276 16.0581 18.9885 16.0581 18.4462V12.5524L33.3878 21.3813V41.3405L16.0581 32.5115V22.3719C16.0581 21.8296 15.6185 21.3905 15.0767 21.3905C14.5348 21.3905 14.0952 21.8296 14.0952 22.3719V33.1127C14.0952 33.4817 14.3022 33.8196 14.6309 33.9873Z" fill="white"/>
</svg>
