<svg width="20" height="19" viewBox="0 0 20 19" fill="none" xmlns="http://www.w3.org/2000/svg">
<path fill-rule="evenodd" clip-rule="evenodd" d="M2.66659 1.58331C2.06828 1.58331 1.58325 2.06834 1.58325 2.66665C1.58325 3.26495 2.06828 3.74998 2.66659 3.74998C3.26489 3.74998 3.74992 3.26495 3.74992 2.66665C3.74992 2.06834 3.26489 1.58331 2.66659 1.58331ZM0.083252 2.66665C0.083252 1.23991 1.23985 0.083313 2.66659 0.083313C4.09332 0.083313 5.24992 1.23991 5.24992 2.66665C5.24992 4.09338 4.09332 5.24998 2.66659 5.24998C1.23985 5.24998 0.083252 4.09338 0.083252 2.66665ZM13.6666 7.08331C12.4068 7.08331 11.1986 7.58376 10.3078 8.47456C9.41703 9.36535 8.91659 10.5735 8.91659 11.8333V17.5H11.0833V11.8333C11.0833 11.1482 11.3554 10.4911 11.8399 10.0066C12.3244 9.52215 12.9814 9.24998 13.6666 9.24998C14.3517 9.24998 15.0088 9.52215 15.4933 10.0066C15.9777 10.4911 16.2499 11.1482 16.2499 11.8333V17.5H18.4166V11.8333C18.4166 10.5735 17.9161 9.36535 17.0253 8.47456C16.1345 7.58376 14.9264 7.08331 13.6666 7.08331ZM9.24717 7.4139C10.4193 6.24179 12.009 5.58331 13.6666 5.58331C15.3242 5.58331 16.9139 6.24179 18.086 7.4139C19.2581 8.586 19.9166 10.1757 19.9166 11.8333V18.25C19.9166 18.6642 19.5808 19 19.1666 19H15.4999C15.0857 19 14.7499 18.6642 14.7499 18.25V11.8333C14.7499 11.546 14.6358 11.2704 14.4326 11.0673C14.2295 10.8641 13.9539 10.75 13.6666 10.75C13.3793 10.75 13.1037 10.8641 12.9006 11.0673C12.6974 11.2704 12.5833 11.546 12.5833 11.8333V18.25C12.5833 18.6642 12.2475 19 11.8333 19H8.16659C7.75237 19 7.41659 18.6642 7.41659 18.25V11.8333C7.41659 10.1757 8.07507 8.586 9.24717 7.4139ZM0.083252 7.24998C0.083252 6.83577 0.419038 6.49998 0.833252 6.49998H4.49992C4.91413 6.49998 5.24992 6.83577 5.24992 7.24998V18.25C5.24992 18.6642 4.91413 19 4.49992 19H0.833252C0.419038 19 0.083252 18.6642 0.083252 18.25V7.24998ZM1.58325 7.99998V17.5H3.74992V7.99998H1.58325Z" fill="white"/>
</svg>
