<svg width="32" height="26" viewBox="0 0 32 26" fill="none" xmlns="http://www.w3.org/2000/svg">
<path fill-rule="evenodd" clip-rule="evenodd" d="M2.8965 4.02368L15.9997 13.1959L29.1029 4.02368C28.8911 3.24548 28.1746 2.66656 27.333 2.66656H4.66634C3.82475 2.66656 3.10826 3.24548 2.8965 4.02368ZM29.1663 6.42055L16.5731 15.2358C16.2288 15.4768 15.7705 15.4768 15.4262 15.2358L2.83301 6.42055V21.4999C2.83301 22.5059 3.66029 23.3332 4.66634 23.3332H27.333C28.3391 23.3332 29.1663 22.5059 29.1663 21.4999V6.42055ZM0.833008 4.4999C0.833008 2.38928 2.55572 0.666565 4.66634 0.666565H27.333C29.4436 0.666565 31.1663 2.38928 31.1663 4.4999V21.4999C31.1663 23.6105 29.4436 25.3332 27.333 25.3332H4.66634C2.55572 25.3332 0.833008 23.6105 0.833008 21.4999V4.4999Z" fill="#444444" fill-opacity="0.79"/>
</svg>
