<svg width="48" height="38" viewBox="0 0 48 38" fill="none" xmlns="http://www.w3.org/2000/svg">
<path d="M47.9837 8.9232C47.983 6.46799 45.386 4.22858 40.6705 2.61814C40.3036 2.49289 39.9034 2.68874 39.7779 3.05633C39.6524 3.42383 39.8486 3.82349 40.2161 3.94892C44.2588 5.32958 46.5774 7.1428 46.5774 8.92367C46.5774 11.1324 42.9937 13.3684 37.2247 14.759C36.9089 14.8352 36.6863 15.1176 36.6863 15.4425L36.686 18.9616L34.7922 18.5645L29.4372 13.2075C29.1904 12.9606 28.8003 12.9322 28.5203 13.1404L23.5509 16.8357L18.4118 11.262C18.2677 11.1059 18.0618 11.0226 17.849 11.037C17.637 11.0509 17.4428 11.1599 17.3203 11.3334L12.9911 17.4721L11.2607 17.8282V15.4338C11.2607 15.1091 11.0385 14.8267 10.723 14.7504C4.97625 13.3594 1.40625 11.1267 1.40625 8.92377C1.40625 7.14542 3.71916 5.33417 7.75191 3.95427C12.0791 2.47358 17.8466 1.65814 23.9918 1.65814C28.767 1.65814 33.3425 2.15267 37.224 3.0883C37.6018 3.17952 37.9813 2.94702 38.0723 2.56958C38.1634 2.19205 37.9311 1.81227 37.5536 1.72124C33.5658 0.760017 28.8763 0.251892 23.9918 0.251892C17.6958 0.251892 11.7667 1.09424 7.29656 2.62377C2.59134 4.23383 0 6.47117 0 8.92377V15.0175C0 15.4059 0.314812 15.7206 0.703125 15.7206C1.09144 15.7206 1.40625 15.4059 1.40625 15.0175V11.9451C2.99522 13.5671 5.88675 14.9653 9.85444 15.9832V36.1411C4.61897 34.7441 1.40625 32.6257 1.40625 30.5304V18.2988C1.40625 17.9104 1.09144 17.5956 0.703125 17.5956C0.314812 17.5956 0 17.9104 0 18.2988V30.5304C0 33.5098 3.78788 36.1334 10.3925 37.7285C10.4471 37.7417 10.5024 37.7481 10.5575 37.7481C10.7137 37.7481 10.8672 37.696 10.9925 37.5975C11.1619 37.4642 11.2607 37.2605 11.2607 37.045V24.5731C12.1014 24.3821 12.9818 24.2095 13.8853 24.0586C14.2683 23.9945 14.5269 23.6323 14.463 23.2492C14.3991 22.8662 14.0364 22.6067 13.6537 22.6715C12.8343 22.8083 12.0328 22.9626 11.2607 23.1322V19.264L13.5471 18.7935C13.7222 18.7575 13.877 18.6561 13.98 18.5101L17.9678 12.8554L22.946 18.2543C23.1898 18.5188 23.5938 18.5566 23.8824 18.342L28.8721 14.6316L33.9457 19.7071C34.0423 19.8036 34.1649 19.87 34.2987 19.898L36.686 20.3987L36.6857 23.1325C32.8885 22.298 28.5154 21.8586 23.9725 21.8586C21.5186 21.8586 19.1 21.9874 16.7839 22.2412C16.3979 22.2835 16.1193 22.6307 16.1616 23.0167C16.2039 23.4028 16.5512 23.6816 16.9372 23.639C19.2026 23.3908 21.5696 23.2649 23.9725 23.2649C28.5372 23.2649 32.9182 23.7166 36.6856 24.5734L36.6844 37.045C36.6844 37.2606 36.7832 37.4643 36.9525 37.5976C37.0778 37.6962 37.2313 37.7482 37.3875 37.7482C37.4426 37.7482 37.498 37.7418 37.5526 37.7285C44.1921 36.125 48 33.5013 48 30.5299L47.9837 8.9232ZM38.0906 36.1412L38.0926 15.9926C42.0814 14.9735 44.9865 13.5713 46.5798 11.9435L46.5938 30.5304C46.5938 32.6186 43.36 34.7374 38.0906 36.1412Z" fill="#25252B"/>
<path d="M20.64 7.72431C20.64 9.56763 22.1392 11.0673 23.9821 11.0673C25.8249 11.0673 27.3242 9.56763 27.3242 7.72431C27.3242 5.881 25.8249 4.38128 23.9821 4.38128C22.1392 4.38128 20.64 5.881 20.64 7.72431ZM25.918 7.72431C25.918 8.79231 25.0495 9.66109 23.9822 9.66109C22.9147 9.66109 22.0463 8.79222 22.0463 7.72431C22.0463 6.65641 22.9147 5.78753 23.9822 5.78753C25.0495 5.78753 25.918 6.65631 25.918 7.72431Z" fill="#25252B"/>
</svg>
