<svg width="45" height="44" viewBox="0 0 45 44" fill="none" xmlns="http://www.w3.org/2000/svg">
<path fill-rule="evenodd" clip-rule="evenodd" d="M13.5633 4.48345C13.1953 4.16699 12.7249 3.99514 12.2395 3.99991L12.2199 4.00001H6.2211C5.94366 4.00036 5.66933 4.05843 5.41554 4.17053C5.16156 4.28272 4.93371 4.44656 4.74652 4.65163C4.55932 4.8567 4.41688 5.0985 4.32825 5.36163C4.24103 5.62061 4.20781 5.89466 4.23061 6.16688C4.8561 12.03 6.85247 17.6638 10.0584 22.6126L10.0679 22.6274C12.9811 27.2119 16.868 31.0988 21.4525 34.012L21.4681 34.022C26.3937 37.2162 31.9992 39.212 37.835 39.8494C38.1074 39.872 38.3816 39.8384 38.6406 39.7508C38.9045 39.6616 39.1467 39.5183 39.352 39.33C39.5572 39.1417 39.7208 38.9127 39.8324 38.6575C39.944 38.4023 40.001 38.1266 39.9999 37.8481L39.9999 37.84V31.84C39.9999 31.8235 40.0001 31.8069 40.0005 31.7904C40.0126 31.3 39.8441 30.8222 39.527 30.4479C39.2114 30.0754 38.7706 29.8313 38.2876 29.7614C36.2217 29.4881 34.1931 28.9824 32.2407 28.2538L32.2361 28.2521C31.8782 28.1176 31.4892 28.0885 31.1153 28.1682C30.7428 28.2476 30.4008 28.4318 30.1294 28.6989L27.5941 31.2342C26.9575 31.8709 25.9739 32.0036 25.1913 31.5586C19.8712 28.5335 15.4663 24.1286 12.4413 18.8086C11.9963 18.026 12.129 17.0424 12.7657 16.4058L15.3009 13.8705C15.5681 13.5991 15.7522 13.2571 15.8317 12.8846C15.9114 12.5106 15.8823 12.1217 15.7478 11.7637L15.7461 11.7592C15.0175 9.80681 14.5118 7.77837 14.2385 5.71248C14.1691 5.23483 13.9294 4.79827 13.5633 4.48345ZM12.211 1.09556e-05C13.6631 -0.0116629 15.0703 0.503697 16.1715 1.45071C17.2754 2.40007 17.9964 3.71845 18.2002 5.16011L18.2027 5.1785C18.4361 6.94835 18.8689 8.68613 19.4929 10.3587C19.8957 11.4318 19.9828 12.5979 19.7437 13.7189C19.5044 14.8408 18.9486 15.8706 18.142 16.6863L18.1341 16.6942L16.6999 18.1284C19.0516 21.8177 22.1822 24.9483 25.8715 27.3L27.3136 25.8579C28.1292 25.0513 29.159 24.4955 30.2809 24.2562C31.402 24.0171 32.5681 24.1041 33.6412 24.507C35.3137 25.1309 37.0515 25.5638 38.8214 25.7972L38.8393 25.7996C40.2965 26.0052 41.6275 26.7392 42.5788 27.8621C43.5244 28.978 44.0295 30.4007 43.9999 31.8624V37.836C44.0027 38.6701 43.8315 39.4957 43.4974 40.2599C43.1627 41.0255 42.6717 41.7127 42.0561 42.2775C41.4404 42.8423 40.7136 43.2723 39.9221 43.54C39.1306 43.8077 38.292 43.9071 37.4599 43.8319C37.4478 43.8308 37.4358 43.8296 37.4238 43.8283C30.9615 43.1261 24.754 40.9186 19.2994 37.383C14.2251 34.157 9.92248 29.8544 6.69652 24.78C3.14848 19.3006 0.940397 13.0627 0.251049 6.57121L0.247983 6.54001C0.173014 5.71041 0.271608 4.87429 0.537484 4.08489C0.80336 3.29548 1.2307 2.57008 1.79228 1.95488C2.35387 1.33967 3.0374 0.84814 3.79936 0.511578C4.56131 0.175015 5.385 0.000796187 6.21798 1.179e-05L12.211 1.09556e-05ZM24.1109 1.79043C24.2266 0.691945 25.211 -0.104725 26.3094 0.0110218C30.8389 0.488286 35.0698 2.49724 38.3025 5.70564C41.5351 8.91405 43.5759 13.1297 44.0872 17.6555C44.2112 18.7531 43.422 19.7434 42.3244 19.8674C41.2268 19.9914 40.2365 19.2021 40.1125 18.1046C39.7034 14.484 38.0708 11.1114 35.4847 8.5447C32.8986 5.97797 29.5139 4.37081 25.8903 3.989C24.7918 3.87325 23.9951 2.88892 24.1109 1.79043ZM24.1377 9.61308C24.3513 8.52938 25.4031 7.8241 26.4868 8.0378C28.8472 8.50324 31.0132 9.66746 32.7037 11.3793C34.3942 13.0912 35.5311 15.2717 35.9668 17.6378C36.1668 18.7241 35.4484 19.7669 34.3621 19.9669C33.2758 20.167 32.233 19.4485 32.0329 18.3622C31.7425 16.7848 30.9845 15.3312 29.8576 14.1899C28.7306 13.0487 27.2866 12.2725 25.7129 11.9622C24.6292 11.7485 23.924 10.6968 24.1377 9.61308Z" fill="black"/>
</svg>
