<svg width="38" height="38" viewBox="0 0 38 38" fill="none" xmlns="http://www.w3.org/2000/svg">
<path fill-rule="evenodd" clip-rule="evenodd" d="M29.0452 17.5549C29.5284 18.4577 29.5284 19.5422 29.0452 20.445C28.8129 20.8792 28.4692 21.1921 28.1513 21.4408C27.8428 21.6822 27.4432 21.9486 26.9909 22.2501L18.5172 27.8992C17.9653 28.2672 17.4892 28.5846 17.0906 28.8083C16.6931 29.0314 16.2049 29.2621 15.6478 29.289C14.5197 29.3435 13.4532 28.7727 12.8728 27.8038C12.5862 27.3254 12.5073 26.7912 12.4724 26.3367C12.4374 25.8809 12.4374 25.3088 12.4375 24.6455L12.4375 13.3545C12.4374 12.6912 12.4374 12.119 12.4724 11.6632C12.5073 11.2087 12.5862 10.6745 12.8728 10.1961C13.4532 9.22722 14.5197 8.65641 15.6478 8.71094C16.2049 8.73787 16.6931 8.96855 17.0906 9.19163C17.4892 9.41534 17.9653 9.73275 18.5172 10.1007L26.9909 15.7498C27.4432 16.0513 27.8428 16.3177 28.1513 16.5591C28.4692 16.8078 28.8129 17.1207 29.0452 17.5549ZM26.5338 19.3734C26.672 19.2653 26.7243 19.2084 26.7378 19.1928C26.7975 19.0712 26.7975 18.9287 26.7378 18.8071C26.7243 18.7915 26.672 18.7346 26.5338 18.6265C26.3136 18.4542 25.9988 18.2433 25.4957 17.9079L17.103 12.3128C16.4973 11.909 16.1058 11.6491 15.806 11.4808C15.6138 11.373 15.5223 11.3406 15.4977 11.3324C15.3531 11.3331 15.218 11.4054 15.1372 11.5253C15.1304 11.5503 15.1066 11.6445 15.0897 11.8641C15.0634 12.207 15.0625 12.6769 15.0625 13.4048V24.5951C15.0625 25.3231 15.0634 25.7929 15.0897 26.1358C15.1066 26.3555 15.1304 26.4496 15.1372 26.4746C15.218 26.5946 15.3531 26.6668 15.4977 26.6676C15.5223 26.6594 15.6138 26.627 15.806 26.5191C16.1058 26.3508 16.4973 26.091 17.103 25.6872L25.4957 20.092C25.9988 19.7566 26.3136 19.5457 26.5338 19.3734Z" fill="white"/>
<path fill-rule="evenodd" clip-rule="evenodd" d="M19 0.1875C8.61014 0.1875 0.1875 8.61014 0.1875 19C0.1875 29.3899 8.61014 37.8125 19 37.8125C29.3899 37.8125 37.8125 29.3899 37.8125 19C37.8125 8.61014 29.3899 0.1875 19 0.1875ZM2.8125 19C2.8125 10.0599 10.0599 2.8125 19 2.8125C27.9401 2.8125 35.1875 10.0599 35.1875 19C35.1875 27.9401 27.9401 35.1875 19 35.1875C10.0599 35.1875 2.8125 27.9401 2.8125 19Z" fill="white"/>
</svg>
