<svg width="20" height="17" viewBox="0 0 20 17" fill="none" xmlns="http://www.w3.org/2000/svg">
<path d="M0 4.5266L0.271912 5.4881L0.292511 5.47503C0.847016 5.12529 1.28555 4.84904 1.77826 4.84904C2.21848 4.84904 2.63977 5.07416 2.95349 5.51759C4.6605 7.92846 5.98069 16.3121 9.17497 16.3121C12.3276 16.3121 20.2452 7.17146 19.9942 3.04687C19.8694 0.997943 18.3275 0.691772 17.4191 0.691772C15.6702 0.691772 13.9269 1.7198 13.047 3.68594C14.5487 3.45675 15.6128 4.2579 15.4984 5.72514C15.3662 7.39165 12.4292 11.6978 11.0625 11.6978C8.72605 11.6978 7.63291 4.19923 6.8512 1.92299C6.65543 1.3548 6.08933 1.00172 5.37278 1.00172C4.86405 1.00172 4.33747 1.18748 3.88932 1.52532C2.85675 2.30323 1.80405 3.10352 0.782319 3.91048L0 4.5266Z" fill="white"/>
</svg>
